# xmcd
#
# Track frame offsets:
#	150
#	12821
#	25546
#	38592
#	51317
#	68744
#	79212
#	91906
#	104678
#	115682
#	129461
#	143686
#	157040
#	170200
#	182451
#	198978
#	212454
#	226080
#	238587
#	249600
#
# Disc length: 3468 seconds
#
# Revision: 0
# Processed by: cddbd v1.5.1PL0 Copyright (c) Steve Scherf et al.
# Submitted via: dBpowerAMP V4.0
#
DISCID=020d8a14
DTITLE=Viateur Caron - 20 Succès Souvenirs
DYEAR=1900
DGENRE=
TTITLE0=Lettre and  souvenirs
TTITLE1=Diane ma fiancée
TTITLE2=Prière d'une mère
TTITLE3=L'automne and toi
TTITLE4=Mes amis les chasseurs
TTITLE5=Tu n'est plus à  moi 
TTITLE6=Avant de te connaître
TTITLE7=Shérif homme de loi
TTITLE8=Elle avait 17 ans
TTITLE9=Ciel du Manitoba
TTITLE10=Au l'obé de ton coeur
TTITLE11=Je chante en me réveillant
TTITLE12=Je ne suis pas différent
TTITLE13=Prisonnière de mon coeur
TTITLE14=25 Ans d'amour
TTITLE15=Infable destin?(Infame)
TTITLE16=Rien je ne changerais de toi 
TTITLE17=Un coin du ciel
TTITLE18=Les fumeux de pot
TTITLE19=Mon coeur brisé
EXTD=L'acadienne
EXTT0=
EXTT1=
EXTT2=
EXTT3=
EXTT4=
EXTT5=
EXTT6=
EXTT7=
EXTT8=
EXTT9=
EXTT10=
EXTT11=
EXTT12=
EXTT13=
EXTT14=
EXTT15=
EXTT16=
EXTT17=
EXTT18=
EXTT19=
PLAYORDER=
